<svg width="183" height="183" viewBox="0 0 183 183" fill="none" xmlns="http://www.w3.org/2000/svg">
<circle cx="91.5" cy="91.5" r="91.5" fill="#DE938C"/>
<path d="M65.251 104.934C67.1402 98.4503 72.38 93.5914 78.8343 92.3552C81.2861 91.8851 83.7401 91.5149 85.6755 91.4165C90.4761 91.1729 102.795 90.0968 111.1 90.6262C115.018 90.8761 118.637 92.9628 120.795 96.3449C128.707 108.748 128.768 135.366 130.713 140.834C118.348 146.631 62.5198 146.201 57.3868 141.309C56.5531 136.101 61.7626 116.906 65.251 104.934Z" fill="#1A1A1A"/>
<path d="M104.864 91.479C104.864 91.479 92.7337 103.911 83.4732 92.7051C83.92 92.3927 84.238 91.8304 84.4652 91.1979C85.0558 89.5658 85.0406 87.3948 85.0406 87.3948L99.9195 83.3105C99.9195 83.3105 100.26 85.0051 101.229 86.9809C102.002 88.5349 103.16 90.2686 104.864 91.479Z" fill="#FFDAC3"/>
<path d="M99.92 83.3105L85.0411 87.3948C85.0411 87.3948 85.0562 89.5658 84.4656 91.1979C84.8594 91.2916 85.2682 91.3619 85.6771 91.4165C87.29 91.6118 88.9331 91.5649 90.5383 91.3228C93.8018 90.8386 96.9366 89.5657 99.7988 87.8946C100.291 87.6134 100.776 87.3167 101.23 86.9809C100.261 85.0051 99.92 83.3105 99.92 83.3105Z" fill="#F1B297"/>
<path d="M118.129 66.4738C117.236 73.3538 110.027 72.7134 110.027 72.7134C108.604 85.4581 98.5483 89.5892 78.8991 88.5818C71.1 88.1757 67.2762 85.8017 65.5876 82.8342C64.1641 80.3587 64.2323 77.4771 64.7017 75.0093C65.0955 72.9946 65.7467 71.2531 66.0874 70.2379C66.7992 68.0825 66.0041 64.709 65.1863 62.21C64.1641 59.0629 64.414 55.5643 66.0571 52.714C71.9178 42.5698 86.986 43.9676 93.2177 44.8266C100.509 45.834 109.528 61.3666 109.528 61.3666C114.359 58.4459 119.015 59.6017 118.129 66.4738Z" fill="#FFDAC4"/>
<path d="M89.6513 69.5421C90.0738 70.8361 89.7111 72.1301 88.8411 72.4323C87.9711 72.7345 86.9224 71.931 86.4999 70.637C86.0774 69.343 86.4401 68.049 87.3101 67.7468C88.1801 67.4446 89.2281 68.2481 89.6513 69.5421Z" fill="#1A1A1A"/>
<path d="M74.1872 71.4273C74.6097 72.7212 74.247 74.0152 73.377 74.3175C72.507 74.6197 71.459 73.8161 71.0357 72.5221C70.6125 71.2281 70.9759 69.9341 71.8459 69.6319C72.7159 69.3297 73.7639 70.1333 74.1872 71.4273Z" fill="#1A1A1A"/>
<path d="M80.7471 76.1127C79.4016 76.7648 77.8486 75.741 77.8486 74.2182C77.8486 72.5962 79.4561 71.9559 80.707 71.5084C80.9463 71.4233 81.128 71.1695 81.0462 70.8985C80.6616 69.6225 80.3314 68.3316 80.0551 67.0267C79.9233 66.4019 78.992 66.662 79.1245 67.2867C79.3691 68.4433 79.6636 69.5865 79.993 70.7197C79.2327 71.0055 78.4801 71.3436 77.8796 71.9113C77.1482 72.6025 76.7893 73.5981 76.9119 74.6134C77.1694 76.7453 79.3872 77.8667 81.2302 76.9733C81.7913 76.7008 81.3059 75.8417 80.7471 76.1127Z" fill="#813E21"/>
<path d="M90.6405 76.9413C90.3815 78.6156 89.429 80.1603 88.0501 81.0873C86.5471 82.0978 84.6034 82.1845 83.0026 81.3879C82.5173 81.1466 82.4332 80.4688 82.6627 80.026C82.9216 79.5254 83.5297 79.4497 83.9832 79.6754C84.0499 79.7082 84.0574 79.7144 84.0552 79.7152C84.0642 79.7175 84.0756 79.7214 84.1135 79.7347C85.0463 80.0658 86.0534 79.9807 86.9181 79.47C88.0009 78.8312 88.593 77.6411 88.7846 76.4041C88.8694 75.8551 89.513 75.6044 89.9734 75.7145C90.5193 75.8457 90.7192 76.4298 90.6405 76.9413Z" fill="#813E21"/>
<path d="M114.875 63.219C114.124 62.8879 113.241 62.9105 112.508 63.2846C112.136 63.4744 110.335 64.898 111.052 65.3361C111.215 65.4353 111.415 65.4399 111.59 65.5134C111.925 65.6531 112.121 66.0335 112.147 66.4052C112.173 66.7769 112.058 67.1431 111.923 67.4883C111.788 67.8343 111.631 68.1755 111.568 68.5418C111.541 68.6956 111.549 68.8885 111.682 68.9619C111.836 69.047 112.012 68.9018 112.121 68.7612C112.494 68.2778 112.636 67.764 112.83 67.1962C113.007 66.6801 113.125 66.2974 112.879 65.75C112.69 65.3298 112.352 64.9925 111.946 64.8261C112.553 64.0195 113.561 63.5407 114.538 63.9718C115.015 64.1811 115.35 63.4291 114.875 63.219Z" fill="#813E21"/>
<path d="M87.5357 62.5012C88.0801 62.4919 88.6329 62.4684 89.15 62.292C89.6672 62.1155 90.1511 61.7664 90.382 61.258C91.1445 59.579 88.1096 59.0503 87.039 59.0652C85.8676 59.0816 84.6516 60.1233 85.1505 61.4665C85.511 62.4372 86.6854 62.5153 87.5357 62.5012Z" fill="#1A1A1A"/>
<path d="M71.7515 65.1158C71.2207 65.2392 70.6778 65.3509 70.1349 65.3056C69.592 65.2603 69.0415 65.0385 68.7007 64.6004C67.5755 63.1541 70.4037 61.9023 71.4478 61.6563C72.5897 61.3877 74.0102 62.1038 73.8323 63.5305C73.705 64.5614 72.5814 64.9229 71.7515 65.1158Z" fill="#1A1A1A"/>
<path d="M103.866 73.7551C103.866 76.0042 102.098 77.8269 99.9173 77.8269C97.7366 77.8269 95.9693 76.0034 95.9693 73.7551C95.9693 71.5061 97.7374 69.6826 99.9173 69.6826C102.099 69.6826 103.866 71.5061 103.866 73.7551Z" fill="#DCA198"/>
<path d="M70.0627 78.8046C70.0627 81.0537 68.2908 82.8811 66.1101 82.8811C65.9284 82.8811 65.7542 82.8654 65.5876 82.8342C64.1641 80.3587 64.2323 77.4771 64.7017 75.0093C65.1409 74.8297 65.6104 74.736 66.1101 74.736C68.2908 74.736 70.0627 76.5556 70.0627 78.8046Z" fill="#DCA198"/>
<path d="M92.8425 34.794C92.8425 34.794 85.4773 29.0917 78.1128 32.299C70.7476 35.5055 68.0694 40.0434 60.9919 37.8732C53.9136 35.703 49.0358 35.703 48.8442 41.6217C48.6526 47.5403 55.6355 48.6258 55.6355 48.6258C55.6355 48.6258 48.4618 52.5718 51.3316 57.0106C54.2014 61.4493 67.4008 62.9292 76.2955 51.8807C76.2955 51.8807 75.6262 57.6017 80.5994 56.9114C85.5734 56.221 89.4949 47.5403 89.4949 47.5403C89.4949 47.5403 91.0949 63.0588 99.5376 62.502C104.115 62.2006 105.946 57.1089 105.946 57.1089C105.946 57.1089 107.019 63.675 114.097 61.4524C121.175 59.2299 114.268 48.2314 114.268 48.2314C114.268 48.2314 121.824 46.7758 121.25 42.4229C120.676 38.0708 107.572 33.8726 101.259 37.3524C101.259 37.3524 107.859 30.7707 104.607 29.2909C101.355 27.811 97.5288 36.591 97.5288 36.591C97.5288 36.591 96.764 24.1618 93.7027 26.2328C90.6421 28.3046 92.8425 34.794 92.8425 34.794Z" fill="#2F3336"/>
<path d="M73.2935 48.49C72.578 49.317 71.7928 50.0847 70.8856 50.6844C70.0126 51.2615 68.8586 51.8918 67.7879 51.6668C67.3488 51.5747 66.9066 51.3162 66.6946 50.8945C66.4205 50.3486 66.5954 49.6849 66.7998 49.1468C67.1943 48.1074 67.8773 47.2148 68.7117 46.5135C69.0214 46.2527 68.683 45.7756 68.3437 45.8607C67.1572 46.159 65.8177 46.4003 64.5941 46.2441C63.5098 46.1059 63.0472 44.9454 63.3758 43.9435C63.712 42.9166 64.6736 42.2403 65.5686 41.7757C66.7006 41.1876 67.9515 40.9018 69.2153 40.8917C69.7021 40.8878 69.7037 40.1068 69.2153 40.1107C67.6774 40.1232 66.1517 40.5184 64.8129 41.3071C63.7854 41.9123 62.7647 42.8494 62.5573 44.1114C62.3808 45.1813 62.8185 46.4175 63.8437 46.8478C64.557 47.1476 65.4157 47.0672 66.1668 47.0079C66.5484 46.9782 66.9278 46.929 67.3056 46.8681C65.9677 48.515 64.8099 51.203 67.0966 52.2518C68.2945 52.8008 69.6476 52.2986 70.7282 51.6903C71.9154 51.0226 72.9346 50.0784 73.8311 49.0422C74.1529 48.6681 73.6191 48.1144 73.2935 48.49Z" fill="#404040"/>
<path d="M109.593 45.6513C109.429 44.3096 108.96 43.0313 108.232 41.9075C107.963 41.4913 107.307 41.8818 107.578 42.3019C108.147 43.1804 108.549 44.1449 108.755 45.1812C108.936 46.0917 109.085 47.3287 108.639 48.1862C108.096 49.231 106.815 48.6859 106.035 48.2885C105.172 47.848 104.318 47.3295 103.844 46.4314C103.622 46.0097 103.098 46.3268 103.152 46.7321C103.334 48.0901 103.447 49.4591 103.483 50.8296C103.505 51.6597 103.508 53.0373 102.54 53.327C101.468 53.6479 100.482 52.3563 99.9985 51.5574C99.3632 50.5078 98.9982 49.3146 98.9247 48.0807C98.8952 47.5817 98.1373 47.5778 98.1676 48.0807C98.2561 49.5575 98.7029 50.999 99.5176 52.2235C100.185 53.2262 101.31 54.3843 102.612 54.1118C103.822 53.8588 104.197 52.5523 104.241 51.4395C104.286 50.2759 104.192 49.0889 104.057 47.9183C104.603 48.4118 105.262 48.7828 105.92 49.0951C106.893 49.5567 108.176 49.9136 109.012 48.9843C109.781 48.1299 109.725 46.7235 109.593 45.6513Z" fill="#404040"/>
<path d="M149.811 88.73L87.2745 112.72L29.493 91.5414L35.4294 82.8809C35.4294 82.8809 60.803 83.7634 85.9418 103.607C85.9418 103.607 109.4 80.952 136.462 78.2266L139.892 80.9208L131.539 83.5556C131.539 83.5556 136.772 83.0918 141.898 82.5061L149.811 88.73Z" fill="#FDFFF7"/>
<path d="M87.2732 112.723C87.2732 112.723 89.8772 107.584 97.5635 102.11C108.815 94.0982 128.988 85.1472 151.589 88.727L142.57 149.09L92.8477 153.391L44.9809 149.09L28 88.727C28 88.727 80.3645 99.2413 87.2732 112.723Z" fill="#9FBEC2"/>
<path d="M122.098 108.265C118.358 110.996 114.962 114.198 112.002 117.806C111.689 118.187 112.222 118.743 112.537 118.358C115.455 114.802 118.794 111.631 122.48 108.94C122.874 108.651 122.497 107.974 122.098 108.265Z" fill="#947DA9"/>
<path d="M126.134 115.053C122.395 117.784 118.999 120.986 116.039 124.595C115.726 124.976 116.259 125.531 116.574 125.147C119.491 121.591 122.831 118.42 126.517 115.728C126.911 115.44 126.533 114.762 126.134 115.053Z" fill="#947DA9"/>
<path d="M129.379 121.903C125.639 124.634 122.243 127.836 119.283 131.444C118.971 131.825 119.504 132.381 119.819 131.996C122.736 128.44 126.075 125.269 129.761 122.578C130.155 122.289 129.777 121.612 129.379 121.903Z" fill="#947DA9"/>
<path d="M60.6155 113.382C56.8757 116.113 53.4797 119.315 50.5198 122.924C50.2071 123.305 50.7402 123.86 51.0552 123.476C53.9726 119.919 57.3119 116.749 60.9979 114.057C61.3924 113.768 61.0146 113.091 60.6155 113.382Z" fill="#947DA9"/>
<path d="M64.6523 120.171C60.9125 122.902 57.5165 126.104 54.5566 129.712C54.2439 130.094 54.777 130.648 55.092 130.264C58.0094 126.708 61.3487 123.537 65.0347 120.846C65.4292 120.557 65.0513 119.88 64.6523 120.171Z" fill="#947DA9"/>
<path d="M67.895 127.02C64.1552 129.75 60.7592 132.952 57.7993 136.561C57.4866 136.943 58.0196 137.497 58.3346 137.113C61.2521 133.557 64.5913 130.386 68.2773 127.693C68.6711 127.406 68.294 126.728 67.895 127.02Z" fill="#947DA9"/>
<path d="M80.9475 145.545C80.8407 144.871 80.7271 144.198 80.6113 143.524C80.5394 143.107 80.4667 142.69 80.3932 142.273C79.8193 138.995 79.2642 135.713 78.7319 132.427C78.7016 132.238 78.6706 132.049 78.6403 131.859C78.4912 130.935 78.342 130.012 78.1936 129.088C78.0217 128.018 77.8498 126.948 77.6794 125.879C77.4954 124.724 77.3114 123.571 77.129 122.417C76.9427 121.241 76.7572 120.064 76.5724 118.887C76.3945 117.75 76.2173 116.613 76.0416 115.476C75.8819 114.44 75.7236 113.405 75.5676 112.369C75.4366 111.496 75.3071 110.624 75.1814 109.751C75.1299 109.396 75.08 109.04 75.0308 108.683C74.9808 108.321 74.9543 107.854 74.6181 107.637C74.4212 107.51 73.1999 107.008 72.8304 106.831C72.2708 106.562 71.7082 106.301 71.1426 106.046C69.7637 105.424 68.3675 104.842 66.9561 104.302C65.5454 103.763 64.1204 103.264 62.6824 102.807C61.2445 102.35 59.7945 101.936 58.3339 101.564C56.8732 101.192 55.4028 100.862 53.924 100.576C52.4452 100.289 50.958 100.046 49.4656 99.8465C47.98 99.6482 46.4883 99.4928 44.9936 99.3811C42.0837 99.164 39.1632 99.1179 36.248 99.2351C36.0633 99.2429 35.9489 99.3608 35.905 99.5021C35.827 99.5865 35.7808 99.7036 35.8172 99.8504C38.7536 111.847 41.9755 123.769 45.4835 135.6C45.9727 137.25 46.4701 138.897 46.9661 140.544C47.2023 141.33 47.4363 142.116 47.6612 142.905C47.8717 143.649 48.0398 144.412 48.3162 145.135C48.3556 145.238 48.398 145.342 48.4722 145.422C48.61 145.57 48.7766 145.539 48.956 145.557C49.0651 145.568 49.168 145.567 49.2778 145.567C49.4997 145.568 49.7208 145.568 49.9426 145.569C50.3856 145.57 50.8293 145.571 51.2723 145.573C52.159 145.576 53.0456 145.58 53.9323 145.587C54.819 145.594 55.7064 145.603 56.5931 145.616C57.4798 145.63 58.3672 145.648 59.2539 145.67C60.1405 145.693 61.0272 145.722 61.9131 145.757C62.7991 145.792 63.685 145.834 64.5709 145.884C65.456 145.934 66.3412 145.993 67.2248 146.06C68.1092 146.128 68.9921 146.205 69.8743 146.293C70.7571 146.381 71.6385 146.48 72.5184 146.591C72.9591 146.647 73.399 146.706 73.8382 146.768C75.1383 146.951 76.4338 147.165 77.7249 147.411C78.2632 147.513 78.8001 147.621 79.3362 147.735C79.6012 147.791 79.8654 147.848 80.1297 147.907C80.3682 147.96 80.6166 148.051 80.8619 148.011C81.027 147.984 81.3397 147.873 81.3026 147.653C81.2496 147.331 81.0013 145.883 80.9475 145.545ZM55.901 144.83C53.5908 144.799 51.2806 144.793 48.9704 144.788C48.9189 144.588 48.8576 144.406 48.8364 144.324C48.4123 142.712 47.9315 141.117 47.4492 139.522C46.4883 136.341 45.5449 133.155 44.6241 129.962C42.772 123.541 41.0032 117.094 39.3185 110.624C38.3985 107.091 37.5072 103.551 36.6372 100.005C46.6011 99.6544 56.5976 101.274 65.98 104.755C68.6953 105.762 74.1252 108.287 74.2062 108.265C75.6494 120.073 76.8829 126.18 78.9099 138.131C79.1984 139.831 79.4952 141.528 79.7905 143.226C79.9313 144.036 80.0699 144.846 80.1978 145.658C80.2668 146.093 80.3326 146.529 80.3955 146.964C80.4061 147.037 80.4159 147.11 80.4265 147.182C72.3753 145.388 64.1173 144.941 55.901 144.83Z" fill="#488094"/>
<path d="M80.2518 106.119L88.007 152.955C88.007 152.955 93.4626 158.78 99.2475 152.842L92.1935 106.576C92.1935 106.576 89.2041 107.895 85.752 107.79C83.9234 107.735 81.9994 107.256 80.2518 106.119Z" fill="#488094"/>
<path d="M141.99 97.05C135.736 97.1281 129.481 97.6045 123.318 98.7134C117.419 99.7833 111.619 101.447 106.099 103.852C105.645 104.047 105.198 104.25 104.744 104.461C103.403 105.086 102.086 105.75 100.784 106.468C100.132 106.827 99.4963 107.194 98.8603 107.577C98.5347 107.764 98.2243 107.96 97.9063 108.155C97.4822 108.42 97.2323 108.85 97.2626 109.365C97.2854 109.693 97.3914 110.006 97.4444 110.326C97.5049 110.716 97.5731 111.114 97.6337 111.505C97.7624 112.301 97.8911 113.09 98.0198 113.879C98.2697 115.456 98.5196 117.042 98.7694 118.619C99.0193 120.204 99.2692 121.782 99.5115 123.367C99.7538 124.952 99.9961 126.53 100.238 128.115C100.473 129.7 100.708 131.286 100.943 132.863C101.177 134.448 101.412 136.034 101.639 137.619C102.033 140.337 102.412 143.054 102.79 145.772C102.813 145.944 102.934 146.045 103.108 146.045C103.396 146.061 103.653 145.912 103.926 145.85C104.221 145.78 104.509 145.702 104.797 145.631C105.402 145.475 106.016 145.342 106.629 145.21C107.863 144.96 109.105 144.757 110.347 144.569C111.596 144.39 112.838 144.233 114.087 144.077C114.61 144.015 115.132 143.945 115.655 143.882C119.819 143.351 123.999 142.929 128.179 142.617C129.64 142.5 131.102 142.406 132.555 142.32C133.54 142.266 134.517 142.226 135.501 142.164C135.562 142.164 135.622 142.156 135.683 142.141C135.834 142.094 135.948 141.977 135.978 141.813C137.606 132.238 139.915 115.121 141.362 105.515C141.771 102.798 142.119 100.447 142.513 97.7294C142.566 97.3702 142.225 97.0266 141.99 97.05ZM137.341 126.139C136.917 128.732 135.774 138.252 135.281 141.399C126.823 141.797 118.381 142.625 110.006 143.882C107.81 144.21 105.614 144.585 103.472 145.186C102.131 135.557 100.723 126.108 99.2389 116.729C98.83 114.16 98.4136 111.583 97.9895 109.014C102.851 105.953 108.098 103.61 113.535 101.907C119.411 100.064 125.483 98.9477 131.586 98.3698C134.963 98.0418 138.348 97.8856 141.733 97.8388C140.355 107.288 138.893 116.721 137.341 126.139Z" fill="#488094"/>
<path d="M155.64 114.612C155.56 114.366 155.471 114.123 155.372 113.883C154.123 110.863 151.284 108.693 148.123 108.322C146.329 108.111 144.193 109.279 144.095 111.352C144.04 112.52 144.733 113.57 145.395 114.519C144.352 114.316 143.347 115.178 142.728 116.066C142.109 116.952 141.778 118.082 141.968 119.157C142.157 120.232 142.913 121.217 143.932 121.518C142.514 121.67 141.119 122.885 140.482 124.2C140.353 124.466 140.25 124.749 140.206 125.043C140.096 125.782 140.373 126.538 140.804 127.139C141.235 127.74 141.809 128.213 142.377 128.678C141.456 129.044 140.552 129.975 140.143 130.901C139.966 131.302 139.853 131.742 139.879 132.182C139.943 133.234 140.776 134.075 141.675 134.576C144.365 136.073 147.857 135.315 150.252 133.357C153.825 130.435 155.546 125.226 156.063 120.701C156.295 118.665 156.264 116.548 155.64 114.612Z" fill="#FFDAC3"/>
<path d="M151.921 116.548C149.971 115.705 147.982 114.961 145.96 114.319C145.493 114.171 145.293 114.925 145.758 115.072C147.779 115.714 149.769 116.458 151.72 117.301C151.91 117.383 152.134 117.213 152.185 117.028C152.248 116.804 152.109 116.629 151.921 116.548Z" fill="#813E21"/>
<path d="M150.574 122.359C148.508 121.893 146.421 121.531 144.321 121.276C143.835 121.217 143.771 121.995 144.254 122.055C146.355 122.31 148.441 122.671 150.508 123.138C150.709 123.183 150.9 122.974 150.918 122.783C150.941 122.55 150.774 122.404 150.574 122.359Z" fill="#813E21"/>
<path d="M148.341 128.379C146.231 128.222 145.029 128.259 142.915 128.316C142.427 128.329 142.472 129.109 142.958 129.096C145.072 129.039 146.274 129.002 148.383 129.159C148.589 129.175 148.749 128.939 148.74 128.748C148.729 128.514 148.543 128.395 148.341 128.379Z" fill="#813E21"/>
<path d="M30.0464 116.745C30.1259 116.499 30.2145 116.256 30.3137 116.016C31.5631 112.997 34.4018 110.826 37.5631 110.455C39.3569 110.245 41.4929 111.413 41.5906 113.485C41.6459 114.654 40.9531 115.703 40.2913 116.653C41.3339 116.45 42.3387 117.311 42.9581 118.199C43.5767 119.085 43.9069 120.215 43.7183 121.291C43.529 122.365 42.7726 123.35 41.7542 123.652C43.1717 123.804 44.5672 125.018 45.204 126.333C45.3334 126.599 45.4364 126.882 45.4804 127.177C45.5901 127.915 45.313 128.671 44.8822 129.273C44.4513 129.874 43.8774 130.346 43.3102 130.812C44.231 131.177 45.1335 132.108 45.5439 133.034C45.7211 133.436 45.8339 133.875 45.8074 134.315C45.7438 135.368 44.9109 136.209 44.0114 136.709C41.3218 138.206 37.8296 137.449 35.4346 135.49C31.8614 132.568 30.1403 127.359 29.6239 122.835C29.3907 120.798 29.4218 118.682 30.0464 116.745Z" fill="#FFDAC3"/>
<path d="M33.7649 118.682C35.7154 117.838 37.7046 117.095 39.7263 116.453C40.1927 116.305 40.3926 117.058 39.9277 117.206C37.906 117.848 35.9169 118.592 33.9663 119.434C33.7763 119.516 33.5521 119.345 33.5006 119.162C33.4378 118.938 33.5771 118.763 33.7649 118.682Z" fill="#813E21"/>
<path d="M35.1093 124.493C37.1757 124.026 39.2618 123.665 41.363 123.409C41.8483 123.35 41.9127 124.129 41.4288 124.188C39.3284 124.443 37.2416 124.805 35.1752 125.271C34.9738 125.316 34.783 125.107 34.7648 124.917C34.7436 124.684 34.9109 124.538 35.1093 124.493Z" fill="#813E21"/>
<path d="M37.3437 130.513C39.4532 130.357 40.6549 130.393 42.769 130.45C43.2573 130.464 43.2127 131.244 42.7266 131.23C40.6125 131.173 39.4108 131.137 37.3013 131.294C37.0953 131.309 36.9355 131.073 36.9446 130.882C36.9545 130.649 37.1407 130.528 37.3437 130.513Z" fill="#813E21"/>
</svg>
