<svg width="22" height="22" viewBox="0 0 22 22" fill="none" xmlns="http://www.w3.org/2000/svg">
<path d="M11 14.3333C7.2068 14.3333 3.83354 16.034 1.68595 18.6733C1.22373 19.2413 0.99262 19.5254 1.00018 19.9092C1.00602 20.2058 1.20657 20.5799 1.45785 20.763C1.7831 21 2.23383 21 3.13527 21H18.8647C19.7662 21 20.2169 21 20.5421 20.763C20.7934 20.5799 20.994 20.2058 20.9998 19.9092C21.0074 19.5254 20.7763 19.2413 20.314 18.6733C18.1665 16.034 14.7932 14.3333 11 14.3333Z" stroke="#DE938C" stroke-linecap="round" stroke-linejoin="round"/>
<path d="M11 11C13.9738 11 16.3845 8.76142 16.3845 6C16.3845 3.23858 13.9738 1 11 1C8.02621 1 5.61547 3.23858 5.61547 6C5.61547 8.76142 8.02621 11 11 11Z" stroke="#DE938C" stroke-linecap="round" stroke-linejoin="round"/>
</svg>
