<svg width="13" height="12" viewBox="0 0 13 12" fill="none" xmlns="http://www.w3.org/2000/svg">
<path d="M1.8861 8.28254C1.92853 8.13403 1.94975 8.05977 1.98155 7.99051C2.00979 7.92901 2.04419 7.87054 2.08424 7.81599C2.12934 7.75455 2.18395 7.69994 2.29317 7.59072L8.75002 1.13389C9.44037 0.443529 10.5597 0.443519 11.25 1.13386C11.9404 1.82423 11.9404 2.94356 11.25 3.63393L4.79317 10.0907C4.68395 10.1999 4.62934 10.2546 4.56791 10.2997C4.51336 10.3397 4.45488 10.3741 4.39339 10.4023C4.32413 10.4341 4.24987 10.4554 4.10136 10.4978L1 11.3839L1.8861 8.28254Z" stroke="#DE938C" stroke-linecap="round" stroke-linejoin="round"/>
</svg>
