<svg width="129" height="130" viewBox="0 0 129 130" fill="none" xmlns="http://www.w3.org/2000/svg">
<path d="M37.251 78.9343C39.1402 72.4503 44.38 67.5914 50.8343 66.3552C53.2861 65.8851 55.7401 65.5149 57.6755 65.4165C62.4761 65.1729 74.7949 64.0968 83.0998 64.6262C87.0183 64.8761 90.637 66.9628 92.795 70.3449C100.707 82.7484 100.768 109.366 102.713 114.834C90.3477 120.631 34.5198 120.201 29.3868 115.309C28.5531 110.101 33.7626 90.9059 37.251 78.9343Z" fill="#1A1A1A"/>
<path d="M76.8639 65.479C76.8639 65.479 64.7337 77.9113 55.4732 66.7051C55.92 66.3927 56.238 65.8304 56.4652 65.1979C57.0558 63.5658 57.0406 61.3948 57.0406 61.3948L71.9195 57.3105C71.9195 57.3105 72.2602 59.0051 73.2294 60.9809C74.0018 62.5349 75.1603 64.2686 76.8639 65.479Z" fill="#FFDAC3"/>
<path d="M71.92 57.3105L57.0411 61.3948C57.0411 61.3948 57.0562 63.5658 56.4656 65.1979C56.8594 65.2916 57.2682 65.3619 57.6771 65.4165C59.29 65.6118 60.9331 65.5649 62.5383 65.3228C65.8018 64.8386 68.9366 63.5657 71.7988 61.8946C72.291 61.6134 72.7756 61.3167 73.2299 60.9809C72.2607 59.0051 71.92 57.3105 71.92 57.3105Z" fill="#F1B297"/>
<path d="M90.1294 40.4738C89.2359 47.3538 82.0274 46.7134 82.0274 46.7134C80.6039 59.4581 70.5483 63.5892 50.8991 62.5818C43.1 62.1757 39.2762 59.8017 37.5876 56.8342C36.1641 54.3587 36.2323 51.4771 36.7017 49.0093C37.0955 46.9946 37.7467 45.2531 38.0874 44.2379C38.7992 42.0825 38.0041 38.709 37.1863 36.21C36.1641 33.0629 36.414 29.5643 38.0571 26.714C43.9178 16.5698 58.986 17.9676 65.2177 18.8266C72.5095 19.834 81.5276 35.3666 81.5276 35.3666C86.3585 32.4459 91.0153 33.6017 90.1294 40.4738Z" fill="#FFDAC4"/>
<path d="M61.6513 43.5421C62.0738 44.8361 61.7111 46.1301 60.8411 46.4323C59.9711 46.7345 58.9224 45.931 58.4999 44.637C58.0774 43.343 58.4401 42.049 59.3101 41.7468C60.1801 41.4446 61.2281 42.2481 61.6513 43.5421Z" fill="#1A1A1A"/>
<path d="M46.1872 45.4273C46.6097 46.7212 46.247 48.0152 45.377 48.3175C44.507 48.6197 43.459 47.8161 43.0357 46.5221C42.6125 45.2281 42.9759 43.9341 43.8459 43.6319C44.7159 43.3297 45.7639 44.1333 46.1872 45.4273Z" fill="#1A1A1A"/>
<path d="M52.7471 50.1127C51.4016 50.7648 49.8486 49.741 49.8486 48.2182C49.8486 46.5962 51.4561 45.9559 52.707 45.5084C52.9463 45.4233 53.128 45.1695 53.0462 44.8985C52.6616 43.6225 52.3314 42.3316 52.0551 41.0267C51.9233 40.4019 50.992 40.662 51.1245 41.2867C51.3691 42.4433 51.6636 43.5865 51.993 44.7197C51.2327 45.0055 50.4801 45.3436 49.8796 45.9113C49.1482 46.6025 48.7893 47.5981 48.9119 48.6134C49.1694 50.7453 51.3872 51.8667 53.2302 50.9733C53.7913 50.7008 53.3059 49.8417 52.7471 50.1127Z" fill="#813E21"/>
<path d="M62.6405 50.9413C62.3815 52.6156 61.429 54.1603 60.0501 55.0873C58.5471 56.0978 56.6034 56.1845 55.0026 55.3879C54.5173 55.1466 54.4332 54.4688 54.6627 54.026C54.9216 53.5254 55.5297 53.4497 55.9832 53.6754C56.0499 53.7082 56.0574 53.7144 56.0552 53.7152C56.0642 53.7175 56.0756 53.7214 56.1135 53.7347C57.0463 54.0658 58.0534 53.9807 58.9181 53.47C60.0009 52.8312 60.593 51.6411 60.7846 50.4041C60.8694 49.8551 61.513 49.6044 61.9734 49.7145C62.5193 49.8457 62.7192 50.4298 62.6405 50.9413Z" fill="#813E21"/>
<path d="M86.8745 37.219C86.1242 36.8879 85.2405 36.9105 84.5075 37.2846C84.1358 37.4744 82.3352 38.898 83.0522 39.3361C83.215 39.4353 83.4149 39.4399 83.5898 39.5134C83.9245 39.6531 84.1214 40.0335 84.1471 40.4052C84.1729 40.7769 84.0578 41.1431 83.923 41.4883C83.7882 41.8343 83.6315 42.1755 83.5679 42.5418C83.5414 42.6956 83.5489 42.8885 83.6822 42.9619C83.8359 43.047 84.0123 42.9018 84.1214 42.7612C84.4939 42.2778 84.6363 41.764 84.8301 41.1962C85.0065 40.6801 85.1247 40.2974 84.8793 39.75C84.69 39.3298 84.3523 38.9925 83.9457 38.8261C84.553 38.0195 85.5608 37.5407 86.5383 37.9718C87.0146 38.1811 87.3501 37.4291 86.8745 37.219Z" fill="#813E21"/>
<path d="M59.5357 36.5012C60.0801 36.4919 60.6329 36.4684 61.15 36.292C61.6672 36.1155 62.1511 35.7664 62.382 35.258C63.1445 33.579 60.1096 33.0503 59.039 33.0652C57.8676 33.0816 56.6516 34.1233 57.1505 35.4665C57.511 36.4372 58.6854 36.5153 59.5357 36.5012Z" fill="#1A1A1A"/>
<path d="M43.7515 39.1158C43.2207 39.2392 42.6778 39.3509 42.1349 39.3056C41.592 39.2603 41.0415 39.0385 40.7007 38.6004C39.5755 37.1541 42.4037 35.9023 43.4478 35.6563C44.5897 35.3877 46.0102 36.1038 45.8323 37.5305C45.705 38.5614 44.5814 38.9229 43.7515 39.1158Z" fill="#1A1A1A"/>
<path d="M75.8661 47.7551C75.8661 50.0042 74.0981 51.8269 71.9173 51.8269C69.7366 51.8269 67.9693 50.0034 67.9693 47.7551C67.9693 45.5061 69.7374 43.6826 71.9173 43.6826C74.0988 43.6826 75.8661 45.5061 75.8661 47.7551Z" fill="#DCA198"/>
<path d="M42.0627 52.8046C42.0627 55.0537 40.2908 56.8811 38.1101 56.8811C37.9284 56.8811 37.7542 56.8654 37.5876 56.8342C36.1641 54.3587 36.2323 51.4771 36.7017 49.0093C37.1409 48.8297 37.6104 48.736 38.1101 48.736C40.2908 48.736 42.0627 50.5556 42.0627 52.8046Z" fill="#DCA198"/>
<path d="M64.8425 8.79405C64.8425 8.79405 57.4773 3.09174 50.1128 6.299C42.7476 9.50547 40.0694 14.0434 32.9919 11.8732C25.9136 9.70304 21.0358 9.70304 20.8442 15.6217C20.6526 21.5403 27.6355 22.6258 27.6355 22.6258C27.6355 22.6258 20.4618 26.5718 23.3316 31.0106C26.2014 35.4493 39.4008 36.9292 48.2955 25.8807C48.2955 25.8807 47.6262 31.6017 52.5994 30.9114C57.5734 30.221 61.4949 21.5403 61.4949 21.5403C61.4949 21.5403 63.0949 37.0588 71.5376 36.502C76.1149 36.2006 77.9465 31.1089 77.9465 31.1089C77.9465 31.1089 79.0187 37.675 86.0969 35.4524C93.1752 33.2299 86.2681 22.2314 86.2681 22.2314C86.2681 22.2314 93.8241 20.7758 93.2502 16.4229C92.6762 12.0708 79.5722 7.87256 73.2595 11.3524C73.2595 11.3524 79.8592 4.77073 76.607 3.29088C73.3549 1.81103 69.5288 10.591 69.5288 10.591C69.5288 10.591 68.764 -1.83823 65.7027 0.232783C62.6421 2.30457 64.8425 8.79405 64.8425 8.79405Z" fill="#2F3336"/>
<path d="M45.2935 22.49C44.578 23.317 43.7928 24.0847 42.8856 24.6844C42.0126 25.2615 40.8586 25.8918 39.7879 25.6668C39.3488 25.5747 38.9066 25.3162 38.6946 24.8945C38.4205 24.3486 38.5954 23.6849 38.7998 23.1468C39.1943 22.1074 39.8773 21.2148 40.7117 20.5135C41.0214 20.2527 40.683 19.7756 40.3437 19.8607C39.1572 20.159 37.8177 20.4003 36.5941 20.2441C35.5098 20.1059 35.0472 18.9454 35.3758 17.9435C35.712 16.9166 36.6736 16.2403 37.5686 15.7757C38.7006 15.1876 39.9515 14.9018 41.2153 14.8917C41.7021 14.8878 41.7037 14.1068 41.2153 14.1107C39.6774 14.1232 38.1517 14.5184 36.8129 15.3071C35.7854 15.9123 34.7647 16.8494 34.5573 18.1114C34.3808 19.1813 34.8185 20.4175 35.8437 20.8478C36.557 21.1476 37.4157 21.0672 38.1668 21.0079C38.5484 20.9782 38.9278 20.929 39.3056 20.8681C37.9677 22.515 36.8099 25.203 39.0966 26.2518C40.2945 26.8008 41.6476 26.2986 42.7282 25.6903C43.9154 25.0226 44.9346 24.0784 45.8311 23.0422C46.1529 22.6681 45.6191 22.1144 45.2935 22.49Z" fill="#404040"/>
<path d="M81.5929 19.6513C81.4285 18.3096 80.9598 17.0313 80.2322 15.9075C79.9626 15.4913 79.3069 15.8818 79.5779 16.3019C80.1466 17.1804 80.5487 18.1449 80.7546 19.1812C80.9356 20.0917 81.0848 21.3287 80.6388 22.1862C80.0959 23.231 78.8155 22.6859 78.0348 22.2885C77.1716 21.848 76.3182 21.3295 75.8442 20.4314C75.6216 20.0097 75.0976 20.3268 75.1521 20.7321C75.3339 22.0901 75.4467 23.4591 75.4831 24.8296C75.505 25.6597 75.508 27.0373 74.5403 27.327C73.4682 27.6479 72.4815 26.3563 71.9985 25.5574C71.3632 24.5078 70.9982 23.3146 70.9247 22.0807C70.8952 21.5817 70.1373 21.5778 70.1676 22.0807C70.2561 23.5575 70.7029 24.999 71.5176 26.2235C72.1847 27.2262 73.3099 28.3843 74.6123 28.1118C75.8215 27.8588 76.1971 26.5523 76.241 25.4395C76.2864 24.2759 76.1918 23.0889 76.057 21.9183C76.6029 22.4118 77.2617 22.7828 77.9205 23.0951C78.8934 23.5567 80.1761 23.9136 81.0121 22.9843C81.7806 22.1299 81.7246 20.7235 81.5929 19.6513Z" fill="#404040"/>
<path d="M121.811 62.73L59.2745 86.72L1.493 65.5414L7.4294 56.8809C7.4294 56.8809 32.803 57.7634 57.9418 77.6067C57.9418 77.6067 81.3997 54.952 108.462 52.2266L111.892 54.9208L103.539 57.5556C103.539 57.5556 108.772 57.0918 113.898 56.5061L121.811 62.73Z" fill="#FDFFF7"/>
<path d="M59.2732 86.7232C59.2732 86.7232 61.8772 81.5839 69.5635 76.1104C80.8154 68.0982 100.988 59.1472 123.589 62.727L114.57 123.09L64.8477 127.391L16.9809 123.09L0 62.727C0 62.727 52.3645 73.2413 59.2732 86.7232Z" fill="#9FBEC2"/>
<path d="M94.0976 82.2649C90.3578 84.9958 86.9618 88.1976 84.0019 91.8062C83.6892 92.1873 84.2222 92.7425 84.5372 92.3583C87.4547 88.802 90.7939 85.6314 94.4799 82.9396C94.8744 82.6514 94.4966 81.9736 94.0976 82.2649Z" fill="#947DA9"/>
<path d="M98.1344 89.0534C94.3946 91.7843 90.9986 94.9861 88.0387 98.5948C87.726 98.9759 88.259 99.5311 88.574 99.1469C91.4915 95.5906 94.8307 92.42 98.5167 89.7282C98.9112 89.44 98.5334 88.7622 98.1344 89.0534Z" fill="#947DA9"/>
<path d="M101.379 95.9029C97.6391 98.6338 94.2431 101.836 91.2832 105.444C90.9705 105.825 91.5036 106.381 91.8186 105.996C94.736 102.44 98.0753 99.2694 101.761 96.5776C102.155 96.2886 101.777 95.6116 101.379 95.9029Z" fill="#947DA9"/>
<path d="M32.6155 87.3822C28.8757 90.1131 25.4797 93.3149 22.5198 96.9236C22.2071 97.3054 22.7402 97.8599 23.0552 97.4757C25.9726 93.9194 29.3119 90.7488 32.9979 88.057C33.3924 87.768 33.0146 87.091 32.6155 87.3822Z" fill="#947DA9"/>
<path d="M36.6523 94.1708C32.9125 96.9017 29.5165 100.104 26.5566 103.712C26.2439 104.094 26.777 104.648 27.092 104.264C30.0094 100.708 33.3487 97.5374 37.0347 94.8455C37.4292 94.5574 37.0513 93.8795 36.6523 94.1708Z" fill="#947DA9"/>
<path d="M39.895 101.02C36.1552 103.75 32.7592 106.952 29.7993 110.561C29.4866 110.943 30.0196 111.497 30.3346 111.113C33.2521 107.557 36.5913 104.386 40.2773 101.693C40.6711 101.406 40.294 100.728 39.895 101.02Z" fill="#947DA9"/>
<path d="M52.9475 119.545C52.8407 118.871 52.7271 118.198 52.6113 117.524C52.5394 117.107 52.4667 116.69 52.3932 116.273C51.8193 112.995 51.2642 109.713 50.7319 106.427C50.7016 106.238 50.6706 106.049 50.6403 105.859C50.4912 104.935 50.342 104.012 50.1936 103.088C50.0217 102.018 49.8498 100.948 49.6794 99.8786C49.4954 98.7244 49.3114 97.571 49.129 96.4168C48.9427 95.2407 48.7572 94.0639 48.5724 92.887C48.3945 91.75 48.2173 90.613 48.0416 89.4759C47.8819 88.4404 47.7236 87.4049 47.5676 86.3686C47.4366 85.4964 47.3071 84.6241 47.1814 83.751C47.1299 83.3957 47.08 83.0396 47.0308 82.6835C46.9808 82.3211 46.9543 81.8541 46.6181 81.637C46.4212 81.5097 45.1999 81.0084 44.8304 80.8311C44.2708 80.5625 43.7082 80.3009 43.1426 80.0455C41.7637 79.4239 40.3675 78.8421 38.9561 78.3025C37.5454 77.7629 36.1204 77.2639 34.6824 76.807C33.2445 76.3502 31.7945 75.9355 30.3339 75.5638C28.8732 75.1921 27.4028 74.8617 25.924 74.5759C24.4452 74.2893 22.958 74.0464 21.4656 73.8465C19.98 73.6482 18.4883 73.4928 16.9936 73.3811C14.0837 73.164 11.1632 73.1179 8.24802 73.2351C8.06326 73.2429 7.94892 73.3608 7.90501 73.5021C7.82702 73.5865 7.78083 73.7036 7.81718 73.8504C10.7536 85.847 13.9755 97.7686 17.4835 109.6C17.9727 111.25 18.4701 112.897 18.9661 114.544C19.2023 115.33 19.4363 116.116 19.6612 116.905C19.8717 117.649 20.0398 118.412 20.3162 119.135C20.3556 119.238 20.398 119.342 20.4722 119.422C20.61 119.57 20.7766 119.539 20.956 119.557C21.0651 119.568 21.168 119.567 21.2778 119.567C21.4997 119.568 21.7208 119.568 21.9426 119.569C22.3856 119.57 22.8293 119.571 23.2723 119.573C24.159 119.576 25.0456 119.58 25.9323 119.587C26.819 119.594 27.7064 119.603 28.5931 119.616C29.4798 119.63 30.3672 119.648 31.2539 119.67C32.1405 119.693 33.0272 119.722 33.9131 119.757C34.7991 119.792 35.685 119.834 36.5709 119.884C37.456 119.934 38.3412 119.993 39.2248 120.06C40.1092 120.128 40.9921 120.205 41.8743 120.293C42.7571 120.381 43.6385 120.48 44.5184 120.591C44.9591 120.647 45.399 120.706 45.8382 120.768C47.1383 120.951 48.4338 121.165 49.7249 121.411C50.2632 121.513 50.8001 121.621 51.3362 121.735C51.6012 121.791 51.8654 121.848 52.1297 121.907C52.3682 121.96 52.6166 122.051 52.8619 122.011C53.027 121.984 53.3397 121.873 53.3026 121.653C53.2496 121.331 53.0013 119.883 52.9475 119.545ZM27.901 118.83C25.5908 118.799 23.2806 118.793 20.9704 118.788C20.9189 118.588 20.8576 118.406 20.8364 118.324C20.4123 116.712 19.9315 115.117 19.4492 113.522C18.4883 110.341 17.5449 107.155 16.6241 103.962C14.772 97.5413 13.0032 91.094 11.3185 84.6241C10.3985 81.0912 9.50724 77.5512 8.63722 74.0051C18.6011 73.6544 28.5976 75.2741 37.98 78.7546C40.6953 79.762 46.1252 82.2868 46.2062 82.2649C47.6494 94.0732 48.8829 100.18 50.9099 112.131C51.1984 113.831 51.4952 115.528 51.7905 117.226C51.9313 118.036 52.0699 118.846 52.1978 119.658C52.2668 120.093 52.3326 120.529 52.3955 120.964C52.4061 121.037 52.4159 121.11 52.4265 121.182C44.3753 119.388 36.1173 118.941 27.901 118.83Z" fill="#488094"/>
<path d="M52.2518 80.1188L60.007 126.955C60.007 126.955 65.4626 132.78 71.2475 126.842L64.1935 80.5765C64.1935 80.5765 61.2041 81.8954 57.752 81.79C55.9234 81.7346 53.9994 81.2559 52.2518 80.1188Z" fill="#488094"/>
<path d="M113.99 71.05C107.736 71.1281 101.481 71.6045 95.3177 72.7134C89.4192 73.7833 83.619 75.4466 78.0991 77.8519C77.6448 78.0471 77.198 78.2501 76.7437 78.461C75.4035 79.0857 74.086 79.7495 72.7836 80.468C72.1324 80.8272 71.4963 81.1942 70.8603 81.5769C70.5347 81.7643 70.2243 81.9595 69.9063 82.1548C69.4822 82.4203 69.2323 82.8498 69.2626 83.3652C69.2854 83.6932 69.3914 84.0056 69.4444 84.3257C69.5049 84.7162 69.5731 85.1145 69.6337 85.5049C69.7624 86.3015 69.8911 87.0902 70.0198 87.8789C70.2697 89.4564 70.5196 91.0417 70.7694 92.6191C71.0193 94.2044 71.2692 95.7819 71.5115 97.3672C71.7538 98.9524 71.9961 100.53 72.2384 102.115C72.4731 103.7 72.7079 105.286 72.9426 106.863C73.1773 108.448 73.4121 110.034 73.6392 111.619C74.033 114.337 74.4115 117.054 74.7901 119.772C74.8129 119.944 74.934 120.045 75.1082 120.045C75.3959 120.061 75.6533 119.912 75.9259 119.85C76.2212 119.78 76.509 119.702 76.7967 119.631C77.4025 119.475 78.0158 119.342 78.6291 119.21C79.8634 118.96 81.1052 118.757 82.347 118.569C83.5963 118.39 84.8381 118.233 86.0875 118.077C86.61 118.015 87.1324 117.945 87.6549 117.882C91.8194 117.351 95.9992 116.929 100.179 116.617C101.64 116.5 103.102 116.406 104.555 116.32C105.54 116.266 106.517 116.226 107.501 116.164C107.562 116.164 107.622 116.156 107.683 116.141C107.834 116.094 107.948 115.977 107.978 115.813C109.606 106.238 111.915 89.1206 113.362 79.5152C113.771 76.7976 114.119 74.447 114.513 71.7294C114.566 71.3702 114.225 71.0266 113.99 71.05ZM109.341 100.139C108.917 102.732 107.774 112.252 107.281 115.399C98.8235 115.797 90.3808 116.625 82.0062 117.882C79.8103 118.21 77.6145 118.585 75.4716 119.186C74.1314 109.557 72.723 100.108 71.2389 90.7293C70.83 88.1601 70.4136 85.583 69.9895 83.0138C74.8507 79.9526 80.0981 77.6098 85.5347 75.9074C91.4106 74.0644 97.4833 72.9477 103.586 72.3698C106.963 72.0418 110.348 71.8856 113.733 71.8388C112.355 81.2879 110.893 90.7215 109.341 100.139Z" fill="#488094"/>
<path d="M127.64 88.6115C127.56 88.3655 127.471 88.1226 127.372 87.8829C126.123 84.8631 123.284 82.6929 120.123 82.3219C118.329 82.1111 116.193 83.2794 116.095 85.3519C116.04 86.5202 116.733 87.5698 117.395 88.5194C116.352 88.3163 115.347 89.1777 114.728 90.0656C114.109 90.9519 113.778 92.0819 113.968 93.1573C114.157 94.2318 114.913 95.2166 115.932 95.518C114.514 95.6703 113.119 96.8846 112.482 98.1997C112.353 98.466 112.25 98.7487 112.206 99.0431C112.096 99.7818 112.373 100.538 112.804 101.139C113.235 101.74 113.809 102.213 114.377 102.678C113.456 103.044 112.552 103.975 112.143 104.901C111.966 105.302 111.853 105.742 111.879 106.182C111.943 107.234 112.776 108.075 113.675 108.576C116.365 110.073 119.857 109.315 122.252 107.357C125.825 104.435 127.546 99.2258 128.063 94.7011C128.295 92.6645 128.264 90.5482 127.64 88.6115Z" fill="#FFDAC3"/>
<path d="M123.921 90.5482C121.971 89.7048 119.982 88.9614 117.96 88.3195C117.493 88.1711 117.293 88.9247 117.758 89.0723C119.779 89.7142 121.769 90.4584 123.72 91.301C123.91 91.383 124.134 91.2128 124.185 91.0285C124.248 90.8036 124.109 90.6287 123.921 90.5482Z" fill="#813E21"/>
<path d="M122.574 96.3591C120.508 95.8929 118.421 95.5313 116.321 95.2759C115.835 95.2166 115.771 95.9952 116.254 96.0545C118.355 96.3099 120.441 96.6714 122.508 97.1377C122.709 97.1829 122.9 96.9737 122.918 96.7831C122.941 96.5496 122.774 96.4036 122.574 96.3591Z" fill="#813E21"/>
<path d="M120.341 102.379C118.231 102.222 117.029 102.259 114.915 102.316C114.427 102.329 114.472 103.109 114.958 103.096C117.072 103.039 118.274 103.002 120.383 103.159C120.589 103.175 120.749 102.939 120.74 102.748C120.729 102.514 120.543 102.395 120.341 102.379Z" fill="#813E21"/>
<path d="M2.04644 90.745C2.12595 90.499 2.21453 90.2562 2.31373 90.0164C3.5631 86.9966 6.40182 84.8264 9.56311 84.4555C11.3569 84.2454 13.4929 85.4129 13.5906 87.4854C13.6459 88.6537 12.9531 89.7033 12.2913 90.6529C13.3339 90.4498 14.3387 91.3112 14.9581 92.1991C15.5767 93.0854 15.9069 94.2154 15.7183 95.2908C15.529 96.3653 14.7726 97.3501 13.7542 97.6515C15.1717 97.8038 16.5672 99.0181 17.204 100.333C17.3334 100.599 17.4364 100.882 17.4804 101.177C17.5901 101.915 17.313 102.671 16.8822 103.273C16.4513 103.874 15.8774 104.346 15.3102 104.812C16.231 105.177 17.1335 106.108 17.5439 107.034C17.7211 107.436 17.8339 107.875 17.8074 108.315C17.7438 109.368 16.9109 110.209 16.0114 110.709C13.3218 112.206 9.82964 111.449 7.43463 109.49C3.86143 106.568 2.14034 101.359 1.62394 96.8347C1.39072 94.798 1.42175 92.6817 2.04644 90.745Z" fill="#FFDAC3"/>
<path d="M5.7649 92.6817C7.71543 91.8383 9.70459 91.0948 11.7263 90.4529C12.1927 90.3045 12.3926 91.0581 11.9277 91.2057C9.906 91.8476 7.91686 92.5918 5.96633 93.4345C5.77627 93.5165 5.55213 93.3454 5.50064 93.1619C5.43779 92.9378 5.57712 92.7629 5.7649 92.6817Z" fill="#813E21"/>
<path d="M7.1093 98.4926C9.17568 98.0263 11.2618 97.6648 13.363 97.4094C13.8483 97.3501 13.9127 98.1286 13.4288 98.188C11.3284 98.4434 9.24156 98.8049 7.17518 99.2711C6.97377 99.3164 6.78296 99.1071 6.76479 98.9166C6.74359 98.6839 6.91092 98.5378 7.1093 98.4926Z" fill="#813E21"/>
<path d="M9.34365 104.513C11.4532 104.357 12.6549 104.393 14.769 104.45C15.2573 104.464 15.2127 105.244 14.7266 105.23C12.6125 105.173 11.4108 105.137 9.30125 105.294C9.09529 105.309 8.93554 105.073 8.94463 104.882C8.95447 104.649 9.14073 104.528 9.34365 104.513Z" fill="#813E21"/>
</svg>
